{"title":"Ostatni Smok -Dragonheart (1996) [DVDRip][Xvid-torentup][Lektor","uid":12496388,"size":734384769,"categoryP":"video","categoryS":"movies","magnet":"?xt=urn:btih:3ef8f7b05cab4c1e12e59fdc397f96ffb49d9f88&amp;dn=Ostatni+Smok+-Dragonheart+%281996%29+%5BDVDRip%5D%5BXvid-torentup%5D%5BLektor+&amp;tr=udp%3A%2F%2Ftracker.leechers-paradise.org%3A6969&amp;tr=udp%3A%2F%2Fzer0day.ch%3A1337&amp;tr=udp%3A%2F%2Fopen.demonii.com%3A1337&amp;tr=udp%3A%2F%2Ftracker.coppersurfer.tk%3A6969&amp;tr=udp%3A%2F%2Fexodus.desync.com%3A6969","seeders":0,"leechers":0,"uploader":"torentup","files":5,"time":1443273429,"description":"=====================\r\nINFO\r\n================\r\n\r\nProdukcja: USA\r\nGatunek: Fantasy, Przygodowy\r\nData premiery: 1996-12-06 (Polska), 1996-05-31 (Świat)\r\nReżyseria: Rob Cohen\r\nScenariusz: Charles Edward Pogue, Patrick Read Johnson\r\nCzas trwania: 98 min.\r\n\r\n\r\n=====================\r\nOPIS\r\n====================\r\nW pewnym państwie, podczas tłumienia buntu chłopów, król ginie, a jego młodociany syn zostaje ciężko ranny. Zrozpaczona królowa (Julie Christie) udaje się do groty smoka, aby prosić go o ratunek. Smok imieniem Draco (głosu udzielił mu sam Sean Connery) dzieli się swym smoczym sercem z księciem, co ocala mu życie. Książe zostaje obwołany królem. Bowen (Dennis Quaid), dotychczasowy nauczyciel i przyjaciel młodzieńca, ma go uczyć kodeksu sprawiedliwego postępowania - kodeksu rycerskiego, jednak młodzieniec staje się zadufany w sobie i nie chce słuchać żadnych rad. Staje się bezwzględnym władcą, co odbija się zwłaszcza na chłopach. Bowen, sądząc, że stało się to przez połowę smoczego serca, bijącego w królu - postanawia zabijać wszystkie smoki, do czasu, aż znajdzie tego właściwego - Draco. Przypadek sprawia, że się wreszcie spotykają. Człowiek i smok zawierają pakt i zostają przyjaciółmi. Później będą musieli uwolnić uciskany naród od tyrana. Jednak w nim bije połowa smoczego serca - nie można go w żaden sposób zabić, póki w smoku bije ta druga połowa...\r\n=====================\r\nOBSADA\r\n====================\r\n\r\nDennis Quaid: Bowen\r\nDavid Thewlis: King Einon\r\nPete Postlethwaite: Gilbert\r\nDina Meyer: Kara\r\nBrian Thompson: Brok\r\nJason Isaacs: Lord Felton\r\nLee Oakes: Young Einon\r\nWolf Christian: Hewe\r\nTerry O'Neill: Redbeard\r\nJulie Christie: Queen Aislinn\r\nSean Connery: Draco (głos)\r\nPeter Hric: King Freyne\r\nEva Vejmelková: Felton's minx\r\nMilan Bahúl: Swamp village chief\r\nSandra Kovacicova: Young Kara\r\n\r\n=====================\r\nDANE TECHNICZNE\r\n=====================\r\n\r\nFormat                         : AVI\r\nFormat/Info                    : Audio Video Interleave\r\nFile size                      : 700 MiB\r\nDuration                       : 1h 38mn\r\nOverall bit rate               : 992 Kbps\r\nWriting application            : VirtualDubMod 1.5.10.1 (build 2439/release)\r\nWriting library                : VirtualDubMod build 2439/release\r\n\r\nVideo\r\nID                             : 0\r\nFormat                         : MPEG-4 Visual\r\nFormat settings, BVOP          : Yes\r\nFormat settings, QPel          : No\r\nFormat settings, GMC           : No warppoints\r\nFormat settings, Matrix        : Default (H.263)\r\nCodec ID                       : DX50\r\nCodec ID/Hint                  : DivX 5\r\nDuration                       : 1h 38mn\r\nBit rate                       : 855 Kbps\r\nWidth                          : 676 pixels\r\nHeight                         : 292 pixels\r\nDisplay aspect ratio           : 2.35:1\r\nFrame rate                     : 25.000 fps\r\nColor space                    : YUV\r\nChroma subsampling             : 4:2:0\r\nBit depth                      : 8 bits\r\nScan type                      : Progressive\r\nCompression mode               : Lossy\r\nBits/(Pixel*Frame)             : 0.173\r\nStream size                    : 603 MiB (86%)\r\nWriting library                : DivX 6.6.1.4\r\n\r\nAudio\r\nID                             : 1\r\nFormat                         : MPEG Audio\r\nFormat version                 : Version 1\r\nFormat profile                 : Layer 3\r\nMode                           : Joint stereo\r\nMode extension                 : MS Stereo\r\nCodec ID                       : 55\r\nCodec ID/Hint                  : MP3\r\nDuration                       : 1h 38mn\r\nBit rate mode                  : Constant\r\nBit rate                       : 128 Kbps\r\nChannel(s)                     : 2 channels\r\nSampling rate                  : 48.0 KHz\r\nCompression mode               : Lossy\r\nDelay relative to video        : 24ms\r\nStream size                    : 90.3 MiB (13%)\r\nAlignment                      : Aligned on interleaves\r\nInterleave, duration           : 40 ms (1.00 video frame)\r\nInterleave, preload duration   : 504 ms\r\nWriting library                : LAME3.90","torrent":{"xt":"urn:btih:3ef8f7b05cab4c1e12e59fdc397f96ffb49d9f88","amp;dn":"Ostatni+Smok+-Dragonheart+%281996%29+%5BDVDRip%5D%5BXvid-torentup%5D%5BLektor+","amp;tr":["udp%3A%2F%2Ftracker.leechers-paradise.org%3A6969","udp%3A%2F%2Fzer0day.ch%3A1337","udp%3A%2F%2Fopen.demonii.com%3A1337","udp%3A%2F%2Ftracker.coppersurfer.tk%3A6969","udp%3A%2F%2Fexodus.desync.com%3A6969"],"infoHash":"3ef8f7b05cab4c1e12e59fdc397f96ffb49d9f88","infoHashBuffer":{"type":"Buffer","data":[62,248,247,176,92,171,76,30,18,229,159,220,57,127,150,255,180,157,159,136]},"announce":[],"urlList":[]}}